<svg width="296" height="77" viewBox="0 0 296 77" fill="none" xmlns="http://www.w3.org/2000/svg">
<path d="M26.4886 21.0909V27.9432H11.0795V56H2.64205V21.0909H26.4886ZM33.8182 56H24.75L36.5284 21.0909H47.7614L59.5398 56H50.4716L42.2727 29.8864H42L33.8182 56ZM32.608 42.2614H51.5625V48.6705H32.608V42.2614ZM61.7812 64.4034V49.4205H64.1847C64.9915 48.875 65.7301 48.1136 66.4006 47.1364C67.071 46.1477 67.6449 44.7614 68.1222 42.9773C68.5994 41.1818 68.9403 38.8125 69.1449 35.8693L70.2358 21.0909H94.1165V49.4205H97.8665V64.3864H89.7528V56H69.8949V64.4034H61.7812ZM73.8665 49.4205H86.0028V27.9432H77.804L77.2585 35.8693C77.1108 38.0852 76.8722 40.0398 76.5426 41.733C76.2131 43.4261 75.821 44.9034 75.3665 46.1648C74.9119 47.4148 74.4119 48.5 73.8665 49.4205ZM130.304 21.0909V56H122.156V21.0909H130.304ZM100.491 56L111.332 37.5227L100.798 21.0909H111.196L118.628 35.1023H134.054L141.213 21.0909H151.56L141.401 37.4205L151.969 56H141.827L135.128 42.875H117.486L110.565 56H100.491ZM156.017 56V21.0909H180.358V27.9432H164.455V35.1023H179.114V41.9716H164.455V49.1477H180.358V56H156.017ZM184.5 27.9432V21.0909H214.006V27.9432H203.42V56H195.102V27.9432H184.5Z" fill="#BABABA"/>
<rect x="247" width="22" height="77" rx="4" fill="#BABABA"/>
<rect x="296" y="27.1045" width="22.6705" height="76.9019" rx="5" transform="rotate(90.2497 296 27.1045)" fill="#BABABA"/>
</svg>
